<svg xmlns="http://www.w3.org/2000/svg" width="100" height="100" viewBox="0 0 100 100">
    <circle cx="50" cy="50" r="48" fill="#DBC098"/>
    <g fill="rgba(0,0,0,0.5)" transform="rotate(40 35 55)">
        <circle cx="35" cy="55" r="20"/>
        <circle cx="35" cy="53.5" r="18.5"/>
    </g>
    <g fill="rgba(0,0,0,0.5)" transform="rotate(30 50 85)">
        <circle cx="50" cy="85" r="8"/>
        <circle cx="50" cy="83.5" r="6.5"/>
    </g>
    <g fill="rgba(0,0,0,0.5)" transform="rotate(-10 72 43)">
        <ellipse cx="72" cy="43" rx="11" ry="13"/>
        <ellipse cx="71.5" cy="42" rx="10" ry="12"/>
    </g>
    <g transform="rotate(30 14 25)">
        <ellipse cx="14" cy="25" fill="#DBC098" rx="11" ry="16"/>
        <ellipse cx="14" cy="25" fill="rgba(0,0,0,0.5)" rx="8" ry="13"/>
        <ellipse cx="15" cy="25" fill="rgba(0,0,0,0.5)" rx="7" ry="13"/>
    </g>
    <g transform="rotate(120 69 15)">
        <ellipse cx="69" cy="15" fill="#DBC098" rx="10" ry="18"/>
        <ellipse cx="69" cy="15" fill="rgba(0,0,0,0.5)" rx="8" ry="14"/>
        <ellipse cx="70" cy="15" fill="rgba(0,0,0,0.5)" rx="6.5" ry="13"/>
    </g>
    <g transform="rotate(-140 83 76)">
        <ellipse cx="83" cy="76" fill="#DBC098" rx="9.5" ry="18"/>
        <ellipse cx="83" cy="76" fill="rgba(0,0,0,0.5)" rx="8" ry="14"/>
        <ellipse cx="84" cy="76" fill="rgba(0,0,0,0.5)" rx="6.5" ry="13"/>
    </g>
    <g transform="rotate(-15 92 36)">
        <ellipse cx="92" cy="36" fill="#DBC098" rx="6" ry="15"/>
        <ellipse cx="94.5" cy="36" fill="rgba(0,0,0,0.5)" rx="2" ry="10"/>
    </g>
    <circle cx="10" cy="45" r="3" fill="rgba(0,0,0,0.5)"/>
    <circle cx="30" cy="85" r="4" fill="rgba(0,0,0,0.5)"/>
    <circle cx="22" cy="78" r="1.5" fill="rgba(0,0,0,0.5)"/>
    <circle cx="68" cy="68" r="5" fill="rgba(0,0,0,0.5)"/>
    <circle cx="35" cy="20" r="5" fill="rgba(0,0,0,0.5)"/>
    <circle cx="47" cy="23" r="3" fill="rgba(0,0,0,0.5)"/>
</svg>