<svg xmlns="http://www.w3.org/2000/svg" width="120" height="45" viewBox="0 0 240 90">
    <path fill="orange" d="M195 0a45 45 0 110 90H35a5 5 0 110-10h30a5 5 0 100-10H15a5 5 0 110-10h75a5 5 0 100-10H50a5 5 0 110-10h30a5 5 0 100-10H30a5 5 0 110-10h75a5 5 0 100-10H65a5 5 0 110-10zM5 0a5 5 0 100 10h20a5 5 0 100-10zm40 0a5 5 0 100 10h5a5 5 0 100-10zM5 40a5 5 0 100 10h10a5 5 0 100-10zm25 0a5 5 0 100 10h5a5 5 0 100-10z"/>
    <path fill="#ff0" d="M195 10a35 35 0 110 70H95a5 5 0 110-10h70a5 5 0 100-10h-10a5 5 0 110-10h15a5 5 0 100-10h-60a5 5 0 110-10h70a5 5 0 100-10h-20a5 5 0 110-10zm-75 0a5 5 0 100 10h5a5 5 0 100-10zm20 0a5 5 0 100 10h5a5 5 0 100-10zm-35 40a5 5 0 100 10h15a5 5 0 100-10zm30 0a5 5 0 100 10h5a5 5 0 100-10z"/>
</svg>